# xmcd CD database file
#
# Track frame offsets:
#	150
#	8357
#	15477
#	28042
#	34440
#	39917
#	45897
#	54202
#	60582
#	67915
#	71845
#	82854
#	87765
#	91290
#	95667
#	102910
#	110932
#	116807
#	124670
#	130377
#	138840
#	144525
#	155170
#	163885
#	169162
#	174565
#	179992
#	188865
#	194207
#	206877
#
# Disc length: 2886 seconds
#
# Revision: 0
# Processed by: cddbd v1.4PL0 Copyright (c) Steve Scherf et al.
# Submitted via: CDex 1.50beta10
#
DISCID=ae0b441e
DTITLE=Julia Cameron and Tim Wheather - This Earth
DYEAR=1997
DGENRE=New Age
TTITLE0=Remembering
TTITLE1=Come To Me
TTITLE2=My Country
TTITLE3=You Do Know Me
TTITLE4=Pear
TTITLE5=Jerusalem Is Walking In This World
TTITLE6=Africa
TTITLE7=The Elements
TTITLE8=A Far Country
TTITLE9=True North
TTITLE10=This Earth
TTITLE11=Stag
TTITLE12=Body English
TTITLE13=It Is A Simple Thing
TTITLE14=Quiet Animal
TTITLE15=You Cannot Name Me
TTITLE16=Pink Ivory
TTITLE17=African King
TTITLE18=Lantern Moon
TTITLE19=When He Found Me
TTITLE20=Country Of Contradictions
TTITLE21=The Doorway
TTITLE22=Unprepared
TTITLE23=There Is A Music
TTITLE24=After Magellamn
TTITLE25=Survival
TTITLE26=Believing In Kansas
TTITLE27=On A Map Of America
TTITLE28=Deep Music
TTITLE29=Why We Write
EXTD=YEAR: 1997
EXTT0=
EXTT1=
EXTT2=
EXTT3=
EXTT4=
EXTT5=
EXTT6=
EXTT7=
EXTT8=
EXTT9=
EXTT10=
EXTT11=
EXTT12=
EXTT13=
EXTT14=
EXTT15=
EXTT16=
EXTT17=
EXTT18=
EXTT19=
EXTT20=
EXTT21=
EXTT22=
EXTT23=
EXTT24=
EXTT25=
EXTT26=
EXTT27=
EXTT28=
EXTT29=
PLAYORDER=
